<?xml version="1.0" encoding="utf-8"?>
<!-- Generator: Adobe Illustrator 27.2.0, SVG Export Plug-In . SVG Version: 6.00 Build 0)  -->
<svg version="1.1" xmlns="http://www.w3.org/2000/svg" xmlns:xlink="http://www.w3.org/1999/xlink" x="0px" y="0px"
	 viewBox="0 0 665.27 242.2" style="enable-background:new 0 0 665.27 242.2;" xml:space="preserve">
<style type="text/css">
	.st0{fill:none;stroke:#EB6E38;stroke-width:4;stroke-miterlimit:10;}
	.st1{fill:#26828F;}
	.st2{fill:#EB6E38;}
	.st3{fill-rule:evenodd;clip-rule:evenodd;fill:#FFF2DB;}
	.st4{fill-rule:evenodd;clip-rule:evenodd;fill:#DE381F;}
	.st5{fill-rule:evenodd;clip-rule:evenodd;fill:#EB6E38;}
	.st6{fill-rule:evenodd;clip-rule:evenodd;fill:#F7A369;}
	.st7{fill-rule:evenodd;clip-rule:evenodd;fill:#EDD1A6;}
	.st8{fill-rule:evenodd;clip-rule:evenodd;fill:#26828F;}
	.st9{fill:#DE381F;}
	.st10{fill-rule:evenodd;clip-rule:evenodd;fill:#1A698A;}
	.st11{fill-rule:evenodd;clip-rule:evenodd;fill:#05244D;}
</style>
<g id="LAYER_01">
</g>
<g id="background">
</g>
<g id="company_name">
</g>
<g id="tagline_is_here">
	<g>
		<path class="st0" d="M339.43,193.09c0-2.74,0.18-5.52,0.54-8.35c0.36-2.83,1.12-5.4,2.27-7.7c1.15-2.3,2.81-4.18,4.97-5.62
			c2.16-1.44,5.06-2.16,8.71-2.16c3.26,0,5.87,0.47,7.81,1.4c1.94,0.94,3.46,2.24,4.54,3.92c1.08,1.68,1.79,3.66,2.12,5.94
			c0.34,2.28,0.5,4.76,0.5,7.45c0,1.15-0.2,2.1-0.61,2.84c-0.41,0.74-0.94,1.33-1.58,1.76c-0.65,0.43-1.4,0.75-2.27,0.94
			c-0.86,0.19-1.73,0.29-2.59,0.29c-1.2,0-2.16-0.2-2.88-0.61c-0.72-0.41-1.26-0.91-1.62-1.51c-0.36-0.6-0.6-1.28-0.72-2.05
			c-0.12-0.77-0.18-1.51-0.18-2.23c-0.05-0.38-0.06-0.73-0.04-1.04c0.02-0.31,0.01-0.66-0.04-1.04c0-0.34-0.01-0.64-0.04-0.9
			c-0.02-0.26-0.06-0.52-0.11-0.76c-0.19-0.82-0.67-1.22-1.44-1.22c-1.01,0-1.79,0.47-2.34,1.4c-0.55,0.94-0.97,2.03-1.26,3.28
			c-0.29,1.25-0.46,2.51-0.5,3.78c-0.05,1.27-0.07,2.27-0.07,2.99c0,0.82,0.02,1.81,0.07,2.99c0.05,1.18,0.22,2.32,0.5,3.42
			c0.34,1.1,0.77,1.97,1.3,2.59c0.53,0.62,1.27,0.94,2.23,0.94c0.82,0,1.44-0.1,1.87-0.29c0.43-0.19,0.84-0.62,1.22-1.3
			c0.1-0.34,0.19-0.74,0.29-1.22c0.1-0.48,0.23-0.95,0.4-1.4c0.17-0.46,0.44-0.86,0.83-1.22c0.38-0.36,0.92-0.66,1.62-0.9
			c0.7-0.24,1.6-0.36,2.7-0.36c1.1,0,2,0.17,2.7,0.5c0.69,0.34,1.23,0.79,1.62,1.37c0.38,0.58,0.65,1.25,0.79,2.02
			c0.14,0.77,0.22,1.58,0.22,2.45c0,2.26-0.37,4.22-1.12,5.9c-0.74,1.68-1.78,3.08-3.1,4.21c-1.32,1.13-2.87,1.97-4.64,2.52
			c-1.78,0.55-3.72,0.83-5.83,0.83c-3.89,0-6.95-0.68-9.18-2.05s-3.92-3.17-5.08-5.4c-1.15-2.23-1.87-4.78-2.16-7.63
			C339.57,198.99,339.43,196.07,339.43,193.09z M356.28,216.2c2.02,0,3.88-0.26,5.58-0.79c1.7-0.53,3.18-1.32,4.43-2.38
			c1.25-1.06,2.22-2.39,2.92-4c0.7-1.61,1.04-3.47,1.04-5.58c0-1.68-0.29-3.04-0.86-4.07c-0.58-1.03-1.82-1.55-3.74-1.55
			c-1.34,0-2.34,0.17-2.99,0.5c-0.65,0.34-1.1,0.75-1.37,1.22c-0.26,0.48-0.43,1.02-0.5,1.62c-0.07,0.6-0.22,1.14-0.43,1.62
			s-0.59,0.89-1.12,1.22c-0.53,0.34-1.37,0.5-2.52,0.5c-1.2,0-2.12-0.4-2.77-1.19s-1.13-1.75-1.44-2.88
			c-0.31-1.13-0.49-2.3-0.54-3.53c-0.05-1.22-0.07-2.24-0.07-3.06c0-0.82,0.04-1.91,0.11-3.28c0.07-1.37,0.26-2.71,0.58-4.03
			c0.31-1.32,0.79-2.46,1.44-3.42c0.65-0.96,1.57-1.44,2.77-1.44c0.86,0,1.45,0.28,1.76,0.83c0.31,0.55,0.49,1.26,0.54,2.12
			c0.05,0.86,0.07,1.78,0.07,2.74c0,0.96,0.11,1.87,0.32,2.74c0.22,0.86,0.65,1.57,1.3,2.12c0.65,0.55,1.67,0.83,3.06,0.83
			c1.73,0,3.21-0.36,4.46-1.08c1.25-0.72,1.87-2.06,1.87-4.03c0-2.74-0.17-5.21-0.5-7.42c-0.34-2.21-1.02-4.09-2.05-5.65
			c-1.03-1.56-2.48-2.77-4.36-3.64c-1.87-0.86-4.32-1.3-7.34-1.3c-3.46,0-6.22,0.68-8.28,2.05c-2.06,1.37-3.66,3.14-4.79,5.33
			c-1.13,2.18-1.86,4.66-2.2,7.42c-0.34,2.76-0.5,5.53-0.5,8.32c0,3.02,0.14,5.93,0.43,8.71c0.29,2.79,0.98,5.25,2.09,7.38
			c1.1,2.14,2.72,3.84,4.86,5.11C349.66,215.57,352.58,216.2,356.28,216.2z"/>
		<path class="st0" d="M400.99,207.49v-28.23c0-1.39,0.05-2.65,0.14-3.78c0.1-1.13,0.37-2.1,0.83-2.92
			c0.46-0.82,1.16-1.45,2.12-1.91c0.96-0.46,2.3-0.68,4.03-0.68c1.3,0,2.35,0.12,3.17,0.36c0.82,0.24,1.45,0.64,1.91,1.19
			c0.46,0.55,0.77,1.25,0.94,2.09c0.17,0.84,0.25,1.86,0.25,3.06v4.68l0.07,9.36v4.68c0,1.01-0.04,2.21-0.11,3.6
			c-0.07,1.39-0.28,2.69-0.61,3.89c0.48-0.1,0.94-0.19,1.37-0.29c0.43-0.1,0.86-0.19,1.3-0.29c0.67-0.14,1.36-0.26,2.05-0.36
			c0.7-0.1,1.38-0.14,2.05-0.14c0.91,0,1.66,0.3,2.23,0.9c0.58,0.6,1.02,1.32,1.33,2.16c0.31,0.84,0.53,1.73,0.65,2.66
			c0.12,0.94,0.18,1.74,0.18,2.41c0,2.78-0.84,4.54-2.52,5.26c-0.38,0.19-0.79,0.32-1.22,0.4c-0.43,0.07-0.89,0.13-1.37,0.18
			c-0.43,0.05-0.91,0.07-1.44,0.07c-0.53,0-1.06,0-1.58,0c-1.1,0-2.22,0.02-3.35,0.07c-1.13,0.05-2.24,0.07-3.35,0.07h-3.31
			c-1.39,0-2.47-0.25-3.24-0.76c-0.77-0.5-1.34-1.15-1.73-1.94c-0.38-0.79-0.61-1.69-0.68-2.7
			C401.02,209.58,400.99,208.55,400.99,207.49z M406.75,215.27h3.31c1.1,0,2.22-0.02,3.35-0.07c1.13-0.05,2.24-0.07,3.35-0.07
			c1.1,0,2.1-0.01,2.99-0.04c0.89-0.02,1.67-0.19,2.34-0.5c0.67-0.31,1.19-0.83,1.55-1.55s0.54-1.75,0.54-3.1
			c0-0.58-0.05-1.28-0.14-2.12c-0.1-0.84-0.28-1.66-0.54-2.45c-0.26-0.79-0.64-1.46-1.12-2.02c-0.48-0.55-1.1-0.83-1.87-0.83
			c-1.15,0-2.45,0.17-3.89,0.5s-2.76,0.6-3.96,0.79c0.24-0.53,0.43-1.15,0.58-1.87s0.25-1.46,0.32-2.23
			c0.07-0.77,0.12-1.54,0.14-2.3c0.02-0.77,0.04-1.44,0.04-2.02v-4.68l-0.07-9.36v-4.68c0-1.15-0.07-2.1-0.22-2.84
			c-0.14-0.74-0.42-1.36-0.83-1.84c-0.41-0.48-0.97-0.82-1.69-1.01c-0.72-0.19-1.66-0.29-2.81-0.29c-0.67,0-1.39,0.02-2.16,0.07
			c-0.77,0.05-1.46,0.26-2.09,0.65c-0.67,0.38-1.16,1.03-1.48,1.94c-0.31,0.91-0.52,1.91-0.61,2.99c-0.1,1.08-0.13,2.15-0.11,3.2
			c0.02,1.06,0.04,1.9,0.04,2.52v25.42c0,1.01,0.02,1.98,0.07,2.92c0.05,0.94,0.24,1.76,0.58,2.48c0.33,0.72,0.84,1.3,1.51,1.73
			C404.54,215.05,405.5,215.27,406.75,215.27z"/>
		<path class="st0" d="M454.41,199.36c-0.1-3.22-0.19-6.43-0.29-9.65c-0.1-3.21-0.14-6.46-0.14-9.72c0-1.2,0.05-2.38,0.14-3.53
			c0.1-1.15,0.36-2.17,0.79-3.06c0.43-0.89,1.12-1.61,2.05-2.16c0.94-0.55,2.24-0.83,3.92-0.83c2.45,0,4.15,0.66,5.11,1.98
			c0.96,1.32,1.44,3.06,1.44,5.22v20.59c0,0.96,0.17,1.8,0.5,2.52c0.33,0.72,0.89,1.08,1.66,1.08c0.91,0,1.64-0.35,2.2-1.04
			c0.55-0.7,0.97-1.67,1.26-2.92c0.29-1.15,0.46-2.36,0.5-3.64c0.05-1.27,0.07-2.32,0.07-3.13c0-0.96-0.01-1.93-0.04-2.92
			c-0.03-0.98-0.04-1.96-0.04-2.92l-0.14-3.96c0-0.96-0.01-1.93-0.04-2.92c-0.02-0.98-0.04-1.96-0.04-2.92
			c0-0.91,0.18-1.69,0.54-2.34c0.36-0.65,0.82-1.16,1.37-1.55c0.55-0.38,1.19-0.67,1.91-0.86c0.72-0.19,1.44-0.29,2.16-0.29
			c1.58,0,2.81,0.46,3.67,1.37c0.86,0.91,1.5,2.04,1.91,3.38c0.41,1.34,0.66,2.76,0.76,4.25c0.1,1.49,0.14,2.78,0.14,3.89
			c0,2.06,0,4.12,0,6.16c0,2.04-0.05,4.09-0.14,6.16c-0.05,2.83-0.25,5.52-0.61,8.06c-0.36,2.54-1.09,4.76-2.2,6.66
			c-1.11,1.9-2.7,3.4-4.79,4.5c-2.09,1.1-4.93,1.66-8.53,1.66c-2.83,0-5.2-0.43-7.09-1.3c-1.9-0.86-3.42-2.05-4.57-3.56
			s-1.99-3.31-2.52-5.4C454.82,204.14,454.51,201.85,454.41,199.36z M469.53,215.77c3.41,0,6.11-0.52,8.1-1.55
			c1.99-1.03,3.52-2.45,4.57-4.25c1.06-1.8,1.76-3.93,2.12-6.41c0.36-2.47,0.56-5.12,0.61-7.96c0.1-2.06,0.14-4.12,0.14-6.16
			c0-2.04,0-4.09,0-6.16c0-1.01-0.04-2.21-0.11-3.6c-0.07-1.39-0.29-2.72-0.65-4c-0.36-1.27-0.92-2.35-1.69-3.24
			c-0.77-0.89-1.87-1.33-3.31-1.33c-1.39,0-2.62,0.34-3.67,1.01c-1.06,0.67-1.58,1.78-1.58,3.31c0,0.96,0.01,1.93,0.04,2.92
			c0.02,0.98,0.04,1.96,0.04,2.92l0.14,3.96c0,0.96,0.01,1.93,0.04,2.92c0.02,0.98,0.04,1.96,0.04,2.92c0,0.82-0.03,1.87-0.07,3.17
			c-0.05,1.3-0.22,2.56-0.5,3.78c-0.29,1.22-0.76,2.28-1.4,3.17c-0.65,0.89-1.57,1.33-2.77,1.33c-0.58,0-1.04-0.14-1.4-0.43
			s-0.65-0.65-0.86-1.08c-0.22-0.43-0.37-0.9-0.47-1.4c-0.1-0.5-0.14-0.97-0.14-1.4v-20.59c0-2.02-0.43-3.6-1.3-4.75
			c-0.86-1.15-2.38-1.73-4.54-1.73c-1.49,0-2.65,0.24-3.49,0.72c-0.84,0.48-1.46,1.12-1.87,1.91c-0.41,0.79-0.65,1.73-0.72,2.81
			c-0.07,1.08-0.11,2.22-0.11,3.42c0,3.27,0.05,6.49,0.14,9.68c0.1,3.19,0.19,6.42,0.29,9.68c0.1,2.45,0.38,4.68,0.86,6.7
			c0.48,2.02,1.28,3.74,2.41,5.18c1.13,1.44,2.59,2.56,4.39,3.35C464.6,215.38,466.84,215.77,469.53,215.77z"/>
		<path class="st0" d="M517.12,200.08v-16.63c0-2.11,0.12-4.03,0.36-5.76c0.24-1.73,0.76-3.19,1.55-4.39
			c0.79-1.2,1.96-2.12,3.49-2.77c1.54-0.65,3.58-0.97,6.12-0.97c2.26,0,4.52,0.07,6.8,0.22c2.28,0.14,4.33,0.62,6.16,1.44
			c1.82,0.82,3.31,2.09,4.46,3.82c1.15,1.73,1.73,4.18,1.73,7.34c0,1.68-0.42,3.46-1.26,5.33s-2.03,3.34-3.56,4.39
			c1.05,0.34,1.96,0.86,2.7,1.58c0.74,0.72,1.34,1.54,1.8,2.45c0.46,0.91,0.79,1.9,1.01,2.95s0.32,2.11,0.32,3.17
			c0,2.59-0.5,4.79-1.51,6.59c-1.01,1.8-2.33,3.26-3.96,4.39c-1.63,1.13-3.5,1.96-5.62,2.48c-2.11,0.53-4.25,0.79-6.41,0.79
			c-2.98,0-5.39-0.36-7.24-1.08c-1.85-0.72-3.29-1.79-4.32-3.2s-1.73-3.14-2.09-5.18C517.3,204.99,517.12,202.67,517.12,200.08z
			 M531.31,215.77c2.16,0,4.25-0.25,6.26-0.76c2.02-0.5,3.8-1.3,5.36-2.38c1.56-1.08,2.81-2.47,3.74-4.18
			c0.94-1.7,1.4-3.78,1.4-6.23c0-1.2-0.13-2.38-0.4-3.53c-0.26-1.15-0.7-2.2-1.3-3.13c-0.6-0.94-1.38-1.69-2.34-2.27
			c-0.96-0.58-2.11-0.89-3.46-0.94c1.01-0.24,1.91-0.72,2.7-1.44c0.79-0.72,1.48-1.56,2.05-2.52c0.58-0.96,1.01-1.97,1.3-3.02
			c0.29-1.05,0.43-2.06,0.43-3.02c0-2.93-0.52-5.21-1.55-6.84c-1.03-1.63-2.41-2.83-4.14-3.6c-1.73-0.77-3.7-1.24-5.9-1.4
			c-2.21-0.17-4.49-0.25-6.84-0.25c-2.4,0-4.32,0.3-5.76,0.9c-1.44,0.6-2.53,1.46-3.28,2.59c-0.75,1.13-1.22,2.51-1.44,4.14
			c-0.22,1.63-0.32,3.48-0.32,5.54v16.63c0,2.59,0.17,4.87,0.5,6.84c0.33,1.97,1,3.6,1.98,4.9c0.98,1.3,2.35,2.28,4.1,2.95
			C526.18,215.44,528.47,215.77,531.31,215.77z M529.29,184.81c0-0.53,0-1.06,0-1.58s0.05-1.06,0.14-1.58
			c0.38-0.09,0.78-0.14,1.19-0.14c0.41,0,0.8,0,1.19,0c0.29,0,0.66,0.02,1.12,0.07c0.46,0.05,0.9,0.14,1.33,0.29
			c0.43,0.14,0.79,0.35,1.08,0.61c0.29,0.26,0.43,0.61,0.43,1.04c0,0.67-0.19,1.24-0.58,1.69c-0.38,0.46-0.86,0.82-1.44,1.08
			c-0.58,0.26-1.19,0.46-1.84,0.58c-0.65,0.12-1.24,0.18-1.76,0.18c-0.14,0-0.29-0.01-0.43-0.04c-0.14-0.02-0.29-0.04-0.43-0.04
			V184.81z M529.36,196.91c0.72,0,1.5,0.08,2.34,0.25c0.84,0.17,1.63,0.43,2.38,0.79s1.36,0.84,1.84,1.44
			c0.48,0.6,0.72,1.36,0.72,2.27c0,0.82-0.24,1.44-0.72,1.87c-0.48,0.43-1.06,0.73-1.73,0.9c-0.67,0.17-1.37,0.25-2.09,0.25
			c-0.67,0-1.26-0.02-1.76-0.07c-0.5-0.05-0.78-0.48-0.83-1.3L529.36,196.91z M530.01,186.32c1.25,0,2.4-0.22,3.46-0.65
			c1.05-0.53,1.58-1.25,1.58-2.16c0-0.38-0.34-0.72-1.01-1.01c-0.38-0.1-0.78-0.17-1.19-0.22c-0.41-0.05-0.76-0.07-1.04-0.07
			s-0.58,0-0.86,0s-0.58,0.03-0.86,0.07c-0.05,0.43-0.07,0.86-0.07,1.3c0,0.43,0,0.84,0,1.22V186.32z M530.23,203.32
			c0,0.29,0.05,0.47,0.14,0.54c0.1,0.07,0.34,0.11,0.72,0.11c0.58,0,1.15-0.01,1.73-0.04c0.58-0.02,1.13-0.13,1.66-0.32
			c0.96-0.34,1.44-0.98,1.44-1.94c0-0.67-0.17-1.25-0.5-1.73c-0.34-0.48-0.78-0.88-1.33-1.19c-0.55-0.31-1.18-0.55-1.87-0.72
			c-0.7-0.17-1.4-0.28-2.12-0.32L530.23,203.32z"/>
	</g>
	<g>
		<path class="st1" d="M270.37,106.11c0-5.41,0.35-10.72,1.05-15.92c0.7-5.2,2.14-9.83,4.32-13.89c2.18-4.06,5.24-7.34,9.17-9.82
			c3.93-2.49,9.08-3.73,15.46-3.73c4.8,0,8.8,0.57,11.99,1.7c3.19,1.14,5.83,2.71,7.93,4.72l6.55,6.55
			c3.06,3.06,5.04,6.96,5.96,11.72c0.92,4.76,1.38,10.07,1.38,15.92c0,1.66-0.24,3.08-0.72,4.26c-0.48,1.18-1.11,2.21-1.9,3.08
			c-1.22,1.14-2.66,1.94-4.32,2.42c-1.66,0.48-3.41,0.77-5.24,0.85c1.22,0.35,2.27,0.96,3.14,1.83l6.55,6.55
			c1.05,1.05,1.75,2.36,2.1,3.93c0.35,1.57,0.52,3.32,0.52,5.24c0,4.02-0.66,7.58-1.97,10.68c-1.31,3.1-3.14,5.65-5.5,7.66
			c-2.36,2.01-5.17,3.54-8.45,4.58c-3.28,1.05-6.88,1.57-10.81,1.57c-5.07,0-9.35-0.66-12.84-1.96c-3.49-1.31-6.38-3.1-8.65-5.37
			l-6.55-6.55c-2.1-2.1-3.73-4.5-4.91-7.21c-1.18-2.71-2.1-5.61-2.75-8.71c-0.65-3.1-1.07-6.35-1.24-9.76
			C270.45,113.05,270.37,109.6,270.37,106.11z M301.02,148.16c3.67,0,7.05-0.48,10.15-1.44c3.1-0.96,5.78-2.4,8.06-4.32
			c2.27-1.92,4.04-4.34,5.31-7.27c1.27-2.92,1.9-6.31,1.9-10.15c0-3.06-0.52-5.52-1.57-7.4c-1.05-1.88-3.32-2.82-6.81-2.82
			c-2.45,0-4.26,0.31-5.44,0.92c-1.18,0.61-2.01,1.35-2.49,2.23c-0.48,0.87-0.79,1.86-0.92,2.95c-0.13,1.09-0.39,2.08-0.79,2.95
			c-0.39,0.87-1.07,1.62-2.03,2.23c-0.96,0.61-2.49,0.92-4.58,0.92c-2.18,0-3.86-0.72-5.04-2.16c-1.18-1.44-2.05-3.19-2.62-5.24
			c-0.57-2.05-0.9-4.19-0.98-6.42c-0.09-2.23-0.13-4.08-0.13-5.57c0-1.48,0.07-3.47,0.2-5.96c0.13-2.49,0.48-4.93,1.05-7.34
			c0.57-2.4,1.44-4.47,2.62-6.22c1.18-1.75,2.86-2.62,5.04-2.62c1.57,0,2.64,0.5,3.21,1.51c0.57,1,0.89,2.29,0.98,3.86
			c0.09,1.57,0.13,3.23,0.13,4.98c0,1.75,0.2,3.41,0.59,4.98s1.18,2.86,2.36,3.86c1.18,1.01,3.03,1.51,5.57,1.51
			c3.14,0,5.85-0.66,8.12-1.96c2.27-1.31,3.41-3.75,3.41-7.34c0-4.98-0.31-9.48-0.92-13.49c-0.61-4.02-1.86-7.44-3.73-10.28
			c-1.88-2.84-4.52-5.04-7.93-6.62c-3.41-1.57-7.86-2.36-13.36-2.36c-6.29,0-11.31,1.24-15.06,3.73c-3.76,2.49-6.66,5.72-8.71,9.69
			c-2.05,3.97-3.39,8.47-4,13.49c-0.61,5.02-0.92,10.07-0.92,15.13c0,5.5,0.26,10.79,0.79,15.85c0.52,5.07,1.79,9.54,3.8,13.43
			c2.01,3.89,4.96,6.99,8.84,9.3C288.99,147,294.29,148.16,301.02,148.16z M317.53,113.44c-1.14-0.35-2.23-0.96-3.28-1.83
			l-6.55-6.55c-1.22-1.22-1.99-2.79-2.29-4.72c-0.31-1.92-0.46-3.71-0.46-5.37c-0.96,0.96-1.7,2.27-2.23,3.93
			c-0.52,1.66-0.92,3.41-1.18,5.24c-0.26,1.83-0.44,3.65-0.52,5.44c-0.09,1.79-0.13,3.3-0.13,4.52c0,1.49,0.04,3.27,0.13,5.37
			c0.09,2.1,0.39,4.15,0.92,6.16c1.48,0,2.55-0.15,3.21-0.46c0.66-0.3,1.16-0.63,1.51-0.98l0.79-1.44l0.52-2.23
			c0.44-2.79,1.46-4.65,3.08-5.57C312.66,114.03,314.82,113.53,317.53,113.44z"/>
		<path class="st1" d="M328.92,107.02c0-6.37,0.39-12.25,1.18-17.62c0.79-5.37,2.36-10.02,4.72-13.95
			c2.36-3.93,5.74-7.01,10.15-9.24c4.41-2.23,10.24-3.34,17.49-3.34c4.8,0,8.89,0.65,12.25,1.96c3.36,1.31,6.18,3.1,8.45,5.37
			l6.55,6.55c2.01,1.92,3.62,4.19,4.85,6.81c1.22,2.62,2.18,5.39,2.88,8.32c0.7,2.93,1.18,6.01,1.44,9.24
			c0.26,3.23,0.39,6.46,0.39,9.69c0,6.11-0.35,11.88-1.05,17.29c-0.7,5.42-2.18,10.13-4.45,14.15c-2.27,4.02-5.52,7.18-9.76,9.5
			c-4.24,2.31-9.94,3.47-17.1,3.47c-5.5,0-10.09-0.66-13.75-1.96s-6.68-3.14-9.04-5.5l-6.55-6.55c-1.92-1.92-3.45-4.1-4.58-6.55
			c-1.14-2.44-2.01-5.13-2.62-8.06c-0.61-2.93-1-6.05-1.18-9.37C329.01,113.93,328.92,110.52,328.92,107.02z M360.36,147.37
			c6.99,0,12.53-1.14,16.64-3.41c4.1-2.27,7.23-5.35,9.37-9.24c2.14-3.89,3.51-8.45,4.13-13.69c0.61-5.24,0.92-10.83,0.92-16.77
			c0-5.15-0.35-10.15-1.05-15c-0.7-4.85-2.1-9.12-4.19-12.84c-2.1-3.71-5.04-6.68-8.84-8.91c-3.8-2.23-8.76-3.34-14.87-3.34
			c-7.07,0-12.73,1.07-16.96,3.21c-4.24,2.14-7.49,5.11-9.76,8.91c-2.27,3.8-3.76,8.32-4.45,13.56c-0.7,5.24-1.05,10.96-1.05,17.16
			c0,5.85,0.3,11.25,0.92,16.18c0.61,4.93,1.96,9.19,4.06,12.77c2.1,3.58,5.13,6.38,9.1,8.38
			C348.29,146.37,353.64,147.37,360.36,147.37z M352.24,107.94c0-1.4,0.04-3.29,0.13-5.7c0.09-2.4,0.39-4.78,0.92-7.14
			c0.52-2.36,1.35-4.39,2.49-6.09c1.13-1.7,2.75-2.55,4.85-2.55c2.36,0,4.17,0.96,5.44,2.88c1.26,1.92,2.18,4.17,2.75,6.75
			c0.57,2.58,0.87,5.2,0.92,7.86c0.04,2.67,0.07,4.78,0.07,6.35c0,1.57-0.09,3.27-0.26,5.11c-0.18,1.83-0.57,3.54-1.18,5.11
			c-0.61,1.57-1.53,2.88-2.75,3.93c-1.22,1.05-2.88,1.57-4.98,1.57c-2.18,0-3.84-0.54-4.98-1.64c-1.14-1.09-1.97-2.47-2.49-4.13
			c-0.52-1.66-0.81-3.43-0.85-5.31c-0.04-1.88-0.07-3.6-0.07-5.17V107.94z"/>
		<path class="st2" d="M398.75,88.03c0.17-1.13,0.31-2.33,0.39-3.6c0.09-1.26,0.22-2.55,0.39-3.86c0.44-2.71,1.09-5.28,1.96-7.73
			c0.44-1.05,0.94-2.03,1.51-2.95c0.57-0.92,1.24-1.72,2.03-2.42c2.18-2.36,5.15-3.54,8.91-3.54c2.1,0,3.82,0.13,5.17,0.39
			c1.35,0.26,2.64,1,3.86,2.23l6.55,6.55c1.13,1.14,2.23,2.69,3.28,4.65s2.03,4.06,2.95,6.29c0.92,2.23,1.75,4.41,2.49,6.55
			c0.74,2.14,1.38,3.95,1.9,5.44c0.17,0.52,0.26,0.83,0.26,0.92c0.44-2.1,0.96-4.34,1.57-6.75c0.61-2.4,1.29-4.8,2.03-7.21
			c0.74-2.4,1.57-4.72,2.49-6.94c0.92-2.23,1.94-4.17,3.08-5.83c1.4-2.01,2.97-3.54,4.72-4.58c1.75-1.05,3.88-1.57,6.42-1.57
			c2.44,0,4.47,0.2,6.09,0.59c1.62,0.39,3.03,1.2,4.26,2.42l6.55,6.55c1.48,1.49,2.66,3.62,3.54,6.42c0.7,1.83,1.31,4.37,1.83,7.6
			c0.52,3.23,0.98,6.83,1.38,10.81c0.39,3.97,0.74,8.14,1.05,12.51c0.31,4.37,0.54,8.58,0.72,12.64c0.17,4.06,0.31,7.79,0.39,11.2
			c0.09,3.41,0.13,6.2,0.13,8.38c0,4.45-1.03,7.49-3.08,9.1c-2.05,1.62-5.22,2.42-9.5,2.42c-1.83,0-3.39-0.24-4.65-0.72
			c-1.27-0.48-2.38-1.16-3.34-2.03l-6.55-6.55c-0.96-1.14-1.64-2.25-2.03-3.34c-0.39-1.09-0.77-2.34-1.11-3.73
			c-1.14,3.32-2.29,6.35-3.47,9.1c-1.18,2.75-2.38,4.39-3.6,4.91c-1.22,0.61-2.62,0.92-4.19,0.92c-1.22,0-2.29-0.24-3.21-0.72
			c-0.92-0.48-1.81-1.16-2.69-2.03l-5.5-5.5c-0.96-0.7-2.05-2.21-3.28-4.52c-1.22-2.31-2.45-4.96-3.67-7.93
			c0.09,1.49,0.13,2.95,0.13,4.39s0,2.9,0,4.39c0,2.88-0.2,5.26-0.59,7.14c-0.39,1.88-1.16,3.34-2.29,4.39
			c-1.83,1.92-5.5,2.88-11,2.88c-3.32,0-5.76-0.79-7.34-2.36l-6.55-6.55c-1.14-1.14-1.88-2.55-2.23-4.26
			c-0.35-1.7-0.52-3.56-0.52-5.57c0-8.21,0.22-16.38,0.66-24.5C397.48,104.4,398.05,96.24,398.75,88.03z M397.7,137.02
			c0,3.23,0.52,5.85,1.57,7.86c1.05,2.01,3.45,3.01,7.2,3.01c2.71,0,4.87-0.2,6.48-0.59c1.61-0.39,2.88-1.07,3.8-2.03
			c0.92-0.96,1.53-2.29,1.83-4c0.31-1.7,0.46-3.86,0.46-6.48c0-4.89-0.09-9.71-0.26-14.48c-0.18-4.76-0.31-9.58-0.39-14.48
			c0.44,1.14,1.03,2.8,1.77,4.98c0.74,2.18,1.57,4.58,2.49,7.21s1.92,5.33,3.01,8.12c1.09,2.8,2.16,5.42,3.21,7.86
			c1.05,2.45,2.05,4.56,3.01,6.35c0.96,1.79,1.83,2.99,2.62,3.6c1.22,0.96,2.58,1.44,4.06,1.44c0.52,0,1.16-0.07,1.9-0.2
			c0.74-0.13,1.33-0.33,1.77-0.59c0.7-0.35,1.51-1.44,2.42-3.27s1.83-4.06,2.75-6.68c0.92-2.62,1.85-5.44,2.82-8.45
			c0.96-3.01,1.85-5.94,2.69-8.78c0.83-2.84,1.55-5.41,2.16-7.73c0.61-2.31,1.09-4,1.44-5.04l0.65,25.02
			c0.09,2.01,0.17,4.04,0.26,6.09c0.09,2.05,0.46,3.89,1.11,5.5c0.66,1.62,1.66,2.95,3.01,4c1.35,1.05,3.34,1.57,5.96,1.57
			c3.84,0,6.68-0.68,8.51-2.03c1.83-1.36,2.75-4.08,2.75-8.19c0-2.1-0.04-4.87-0.13-8.32c-0.09-3.45-0.24-7.21-0.46-11.27
			c-0.22-4.06-0.46-8.27-0.72-12.64c-0.26-4.37-0.59-8.51-0.98-12.44c-0.39-3.93-0.85-7.49-1.38-10.68c-0.52-3.19-1.09-5.65-1.7-7.4
			c-1.14-3.49-2.64-5.79-4.52-6.88c-1.88-1.09-4.61-1.64-8.19-1.64c-4.28,0-7.64,1.88-10.09,5.63c-1.22,1.83-2.31,3.97-3.27,6.42
			c-0.96,2.45-1.81,4.96-2.55,7.53c-0.74,2.58-1.42,5.15-2.03,7.73c-0.61,2.58-1.14,4.96-1.57,7.14c-0.35,1.75-0.68,3.52-0.98,5.31
			c-0.31,1.79-0.77,3.56-1.38,5.31c-1.05-3.06-2.12-6.35-3.21-9.89c-1.09-3.54-2.23-7.07-3.41-10.61c-1.18-3.54-2.4-6.99-3.67-10.35
			c-1.27-3.36-2.69-6.4-4.26-9.1c-1.31-2.36-2.71-3.82-4.19-4.39c-1.49-0.57-3.54-0.85-6.16-0.85c-2.97,0-5.35,0.77-7.14,2.29
			c-1.79,1.53-3.14,3.45-4.06,5.76c-0.92,2.32-1.55,4.8-1.9,7.47c-0.35,2.67-0.61,5.13-0.79,7.4c-0.7,8.21-1.27,16.35-1.7,24.43
			C397.91,120.67,397.7,128.82,397.7,137.02z"/>
		<path class="st2" d="M488.35,68.38c1.31-1.31,2.97-2.14,4.98-2.49c4.63-0.79,9.61-1.33,14.93-1.64c5.33-0.3,10.35-0.46,15.06-0.46
			c1.48,0,2.88,0.65,4.19,1.96l6.55,6.55c1.4,1.4,2.47,3.12,3.21,5.17c0.74,2.05,1.11,3.69,1.11,4.91c0,1.49-0.13,3.08-0.39,4.78
			s-1,3.12-2.23,4.26c-1.05,1.14-2.67,1.83-4.85,2.1c-1.49,0.18-2.9,0.31-4.26,0.39c-1.36,0.09-2.77,0.18-4.26,0.26
			c1.22,0.35,2.27,0.96,3.14,1.83l6.55,6.55c0.96,0.96,1.64,2.18,2.03,3.67c0.39,1.49,0.59,2.97,0.59,4.45
			c0,2.36-0.22,4.35-0.66,5.96c-0.44,1.62-1.49,3.25-3.14,4.91c0.52,0.35,0.83,0.57,0.92,0.66l6.55,6.55
			c0.79,0.87,1.42,1.9,1.9,3.08c0.48,1.18,0.72,2.55,0.72,4.13c0,3.58-0.2,6.59-0.59,9.04c-0.39,2.44-1.2,4.41-2.42,5.89
			c-1.22,1.48-2.97,2.6-5.24,3.34c-2.27,0.74-5.24,1.16-8.91,1.24c-1.75,0.09-3.45,0.13-5.11,0.13c-1.66,0-3.36,0-5.11,0h-10.35
			c-3.84,0-6.73-0.96-8.65-2.88l-6.55-6.55c-1.14-1.14-1.94-2.55-2.42-4.26c-0.48-1.7-0.72-3.64-0.72-5.83v-13.62l-0.13-27.12V81.87
			c0-2.44,0.15-4.82,0.46-7.14C485.58,72.42,486.6,70.3,488.35,68.38z M504.99,147.77c2.01,0,4.06,0,6.16,0
			c2.1,0,4.15-0.04,6.16-0.13c3.58-0.09,6.4-0.48,8.45-1.18c2.05-0.7,3.65-1.75,4.78-3.14c1.13-1.4,1.85-3.23,2.16-5.5
			c0.31-2.27,0.46-5.06,0.46-8.38c0-2.88-0.87-5.06-2.62-6.55c-1.75-1.48-4.02-2.23-6.81-2.23c-1.14,0-2.08,0.28-2.82,0.85
			c-0.74,0.57-1.4,1.22-1.96,1.96c-0.57,0.74-1.14,1.4-1.7,1.96c-0.57,0.57-1.33,0.85-2.29,0.85h-7.07l-0.79-11.66h14.28
			c1.22,0,2.18-0.39,2.88-1.18c0.7-0.79,1.24-1.72,1.64-2.82c0.39-1.09,0.66-2.23,0.79-3.41c0.13-1.18,0.2-2.2,0.2-3.08
			c0-2.36-0.48-4.43-1.44-6.22c-0.96-1.79-2.8-2.69-5.5-2.69h-12.84l-0.66-8.12l17.82-1.44c1.4-0.17,2.51-0.54,3.34-1.11
			c0.83-0.57,1.46-1.31,1.9-2.23c0.44-0.92,0.72-1.94,0.85-3.08c0.13-1.13,0.2-2.27,0.2-3.41c0-0.79-0.2-1.79-0.59-3.01
			c-0.39-1.22-0.92-2.4-1.57-3.54c-0.66-1.13-1.42-2.12-2.29-2.95c-0.87-0.83-1.79-1.24-2.75-1.24c-4.98,0-9.96,0.18-14.93,0.52
			c-4.98,0.35-9.91,0.87-14.8,1.57c-1.75,0.26-3.12,0.9-4.13,1.9c-1,1.01-1.75,2.23-2.23,3.67c-0.48,1.44-0.79,2.97-0.92,4.58
			c-0.13,1.62-0.2,3.12-0.2,4.52c0,9.08,0.02,18.12,0.07,27.12c0.04,9,0.07,18.04,0.07,27.12c0,3.76,0.74,6.64,2.23,8.65
			c1.48,2.01,4.23,3.01,8.25,3.01H504.99z M518.09,122.48h-3.01l0.13,2.36l1.18-0.39L518.09,122.48z"/>
		<path class="st1" d="M547.82,96.02c-2.8-0.26-4.85-1.05-6.16-2.36l-6.55-6.55c-1.14-1.13-1.86-2.58-2.16-4.32
			c-0.31-1.75-0.46-3.75-0.46-6.03c0-2.01,0.13-3.75,0.39-5.24c0.26-1.48,0.74-2.71,1.44-3.67c0.7-0.96,1.72-1.68,3.08-2.16
			c1.35-0.48,3.12-0.72,5.31-0.72c4.19,0,8.38-0.07,12.58-0.2c4.19-0.13,8.38-0.2,12.58-0.2h9.69c1.92,0,3.43,0.44,4.52,1.31
			c1.09,0.87,1.85,1.96,2.29,3.27l2.36,2.36c2.1,0.61,3.49,2.01,4.19,4.19c0.44,0.96,0.7,2.23,0.79,3.8
			c0.09,1.57,0.13,2.88,0.13,3.93c0,2.88-0.31,5.15-0.92,6.81c-0.61,1.66-1.55,2.9-2.82,3.73c-1.27,0.83-2.82,1.35-4.65,1.57
			c-1.83,0.22-3.93,0.33-6.29,0.33v2.49c0,7.51,0.22,14.98,0.66,22.4c0.44,7.42,0.66,14.89,0.66,22.4c0,2.27-0.29,4.15-0.85,5.63
			c-0.57,1.48-1.4,2.64-2.49,3.47c-1.09,0.83-2.45,1.4-4.06,1.7c-1.62,0.3-3.47,0.46-5.57,0.46c-1.92,0-3.78-0.22-5.57-0.65
			c-1.79-0.44-3.3-1.27-4.52-2.49l-6.55-6.55c-1.66-1.66-2.49-4.02-2.49-7.07v-1.05c0.35-6.81,0.59-13.58,0.72-20.31
			C547.23,109.6,547.47,102.83,547.82,96.02z M549.66,88.03c-0.61,8.12-0.98,16.2-1.11,24.24c-0.13,8.04-0.42,16.16-0.85,24.37v1.05
			c0,3.49,1.09,5.85,3.28,7.07c2.18,1.22,4.85,1.83,7.99,1.83c3.93,0,6.86-0.61,8.78-1.83c1.92-1.22,2.88-3.93,2.88-8.12
			c0-7.51-0.22-14.98-0.66-22.4c-0.44-7.42-0.65-14.89-0.65-22.4v-3.8h5.11c3.84,0,6.4-0.98,7.66-2.95c1.26-1.96,1.9-4.69,1.9-8.19
			c0-1.22-0.04-2.49-0.13-3.8c-0.09-1.31-0.33-2.49-0.72-3.54s-1.03-1.92-1.9-2.62c-0.87-0.7-2.1-1.05-3.67-1.05h-9.69h-6.29
			L549,66.15c-1.05,0.09-2.1,0.13-3.14,0.13s-2.1,0-3.14,0c-1.92,0-3.47,0.2-4.65,0.59c-1.18,0.39-2.1,1-2.75,1.83
			c-0.65,0.83-1.07,1.9-1.24,3.21c-0.18,1.31-0.26,2.93-0.26,4.85c0,3.41,0.35,5.89,1.05,7.47c0.7,1.57,1.7,2.64,3.01,3.21
			c1.31,0.57,2.95,0.81,4.91,0.72C544.74,88.07,547.04,88.03,549.66,88.03z"/>
		<path class="st1" d="M579,134.67c0-1.83,0.22-4.23,0.66-7.2c0.44-2.97,1.03-6.2,1.77-9.69c0.74-3.49,1.59-7.14,2.55-10.94
			c0.96-3.8,1.96-7.49,3.01-11.07c1.05-3.58,2.1-6.9,3.14-9.96c1.05-3.06,2.05-5.54,3.01-7.47c1.75-4.28,4.08-7.68,7.01-10.22
			c2.92-2.53,6.88-3.8,11.86-3.8c2.01,0,4.02,0.18,6.03,0.52c2.01,0.35,3.97,1.14,5.9,2.36l6.55,6.55c2.44,1.49,4.45,3.78,6.03,6.88
			c1.57,3.1,2.84,6.35,3.8,9.76c1.05,3.41,1.85,6.83,2.42,10.28c0.57,3.45,1.07,6.4,1.51,8.84c0.44,2.8,0.94,5.7,1.51,8.71
			c0.57,3.01,1.07,6.05,1.51,9.1c0.44,3.06,0.83,6.11,1.18,9.17c0.35,3.06,0.52,5.98,0.52,8.78c0,1.92-0.35,3.49-1.05,4.72
			c-0.7,1.22-1.64,2.21-2.82,2.95c-1.18,0.74-2.55,1.24-4.13,1.51c-1.57,0.26-3.19,0.39-4.85,0.39c-3.06,0-5.44-0.55-7.14-1.64
			c-1.7-1.09-2.99-2.55-3.86-4.39l-6.55-6.55c-0.61-1.31-1.14-2.75-1.57-4.32h-6.55l-0.66,4.19c-0.26,1.75-0.63,3.32-1.11,4.72
			c-0.48,1.4-1.33,2.79-2.55,4.19c-0.79,0.79-1.77,1.42-2.95,1.9c-1.18,0.48-2.6,0.72-4.26,0.72c-4.72,0-8.17-1.05-10.35-3.14
			l-6.55-6.55c-0.96-1.05-1.7-2.31-2.23-3.8C579.26,138.68,579,136.85,579,134.67z M592.36,145.8c2.27,0,4.06-0.5,5.37-1.51
			c1.31-1,2.29-2.27,2.95-3.8c0.66-1.53,1.09-3.23,1.31-5.11c0.22-1.88,0.46-3.65,0.72-5.31h14.02c0.52,2.18,0.96,4.28,1.31,6.29
			c0.35,2.01,0.92,3.8,1.7,5.37c0.79,1.57,1.92,2.84,3.41,3.8c1.48,0.96,3.62,1.44,6.42,1.44c1.48,0,2.9-0.11,4.26-0.33
			c1.35-0.22,2.57-0.61,3.67-1.18c1.09-0.57,1.96-1.4,2.62-2.49c0.66-1.09,0.98-2.51,0.98-4.26c0-2.27-0.18-4.96-0.52-8.06
			c-0.35-3.1-0.77-6.29-1.24-9.56c-0.48-3.28-0.98-6.49-1.51-9.63s-1-5.89-1.44-8.25c-0.35-2.36-0.83-5.24-1.44-8.65
			c-0.61-3.41-1.4-6.81-2.36-10.22c-0.96-3.41-2.21-6.57-3.73-9.5c-1.53-2.92-3.43-5.13-5.7-6.62c-1.66-1.05-3.45-1.75-5.37-2.1
			c-1.92-0.35-3.84-0.52-5.76-0.52c-3.32,0-6.07,0.59-8.25,1.77c-2.18,1.18-4.04,2.73-5.57,4.65c-1.53,1.92-2.82,4.15-3.86,6.68
			c-1.05,2.53-2.05,5.15-3.01,7.86c-0.52,1.57-1.18,3.65-1.96,6.22c-0.79,2.58-1.59,5.37-2.42,8.38c-0.83,3.01-1.64,6.16-2.42,9.43
			s-1.49,6.42-2.1,9.43c-0.61,3.01-1.11,5.81-1.51,8.38c-0.39,2.58-0.59,4.65-0.59,6.22c0,4.19,1,7.1,3.01,8.71
			C585.33,144.99,588.34,145.8,592.36,145.8z M606.25,110.95c0-0.61,0.17-1.9,0.52-3.86c0.35-1.96,0.79-4.02,1.31-6.16
			c0.52-2.14,1.11-4.06,1.77-5.76s1.33-2.55,2.03-2.55c0.52,0,0.96,0.77,1.31,2.29c0.35,1.53,0.61,3.23,0.79,5.11
			c0.17,1.88,0.3,3.71,0.39,5.5c0.09,1.79,0.13,2.95,0.13,3.47v1.96H606.25z"/>
	</g>
</g>
<g id="LOGO">
	<g>
		<path class="st3" d="M129.56,87.5c0,0-72.24,6.4-80.38,15.7c-8.14,9.31-20.44,20.05-15.32,44.59
			c5.12,24.54,9.03,42.84,10.79,54.65c1.76,11.81,1.29,26.26,1.29,26.26s-23.33-24.68-28.56-43.1c-5.23-18.42-4.65-55.25-1.16-87.05
			c3.49-31.79,34.51-65.92,58.74-75.42c24.23-9.5,49.44-10.66,49.44-10.66h10.34c0,0,25.2,1.16,49.44,10.66
			c24.23,9.5,55.25,43.62,58.74,75.42c3.49,31.79,4.07,68.63-1.17,87.05c-5.24,18.42-28.56,43.1-28.56,43.1s-0.47-14.45,1.29-26.26
			c1.76-11.81,5.67-30.11,10.79-54.65c5.12-24.54-7.17-35.28-15.32-44.59c-8.14-9.31-79.41-15.62-79.41-15.62L129.56,87.5
			L129.56,87.5z"/>
		<path class="st4" d="M100.16,15.8v74.99c-6.37,0.84-13.14,1.82-19.6,2.94V21.08C87.37,18.76,94.1,17.06,100.16,15.8L100.16,15.8z"
			/>
		<path class="st5" d="M119.77,12.83v75.64c-5.24,0.55-12.15,1.34-19.6,2.32V15.8C108.42,14.1,115.44,13.24,119.77,12.83
			L119.77,12.83z"/>
		<path class="st6" d="M139.37,12.83v75.63c-5.41-0.57-8.83-0.87-8.83-0.87l-0.98-0.09c0,0-3.82,0.34-9.79,0.97V12.83
			c2.93-0.28,4.63-0.36,4.63-0.36h10.34C134.73,12.47,136.43,12.55,139.37,12.83L139.37,12.83z"/>
		<path class="st7" d="M158.97,15.81v74.96c-7.54-0.99-14.47-1.77-19.6-2.31V12.83C143.7,13.24,150.72,14.1,158.97,15.81
			L158.97,15.81z"/>
		<path class="st8" d="M178.57,21.09V93.7c-6.48-1.11-13.26-2.1-19.6-2.93V15.81C165.04,17.06,171.76,18.76,178.57,21.09
			L178.57,21.09z"/>
		<path class="st3" d="M44.73,143.32c0,0,20.75,23.81,22.38,42.47c1.62,18.66,3.62,30.41,1.94,30.1c-1.68-0.31,8.72,8.72,8.72,8.72
			l13.76-7.76l7.56,13.38l30.47-1.17l30.47,1.17l7.56-13.38l13.76,7.76c0,0,10.4-9.03,8.72-8.72c-1.68,0.3,0.32-11.45,1.94-30.1
			c1.62-18.66,22.38-42.47,22.38-42.47s-10.56-6.75-9.87-7.79c0.69-1.04-17.47-11.14-31.1-22.74c-13.63-11.61-43.87-8.82-43.87-8.82
			h0c0,0-30.23-2.79-43.86,8.82c-13.63,11.61-31.79,21.71-31.1,22.74C55.29,136.57,44.73,143.32,44.73,143.32L44.73,143.32z"/>
		<path class="st9" d="M129.57,84.79c-1.96,0.04-50.65,1.02-73.79,12.23c-11.12,5.38-17.86,13.39-21.44,22.94
			c-3.69,9.82-4.14,21.4-2.63,33.58c0.9,7.26,2.73,15.7,4.77,25.09c3.09,14.26,6.65,30.66,8.29,48.79c-1.87-2.06-5.72-6.41-10-11.9
			c-1.8-12.76-4.35-24.52-6.64-35.08c-2.08-9.6-3.96-18.24-4.9-25.86c-1.67-13.41-1.1-26.35,3.13-37.62
			c4.33-11.53,12.42-21.18,25.73-27.62c25.26-12.23,77.29-13.07,77.44-13.07h0.14c0.15,0,52.18,0.84,77.44,13.07
			c13.31,6.44,21.39,16.08,25.72,27.62c4.23,11.27,4.8,24.21,3.13,37.62c-0.95,7.62-2.82,16.26-4.9,25.86
			c-2.29,10.56-4.84,22.33-6.64,35.08c-4.28,5.49-8.13,9.84-10,11.9c1.63-18.13,5.19-34.52,8.28-48.79
			c2.04-9.39,3.87-17.83,4.77-25.09c1.51-12.17,1.06-23.76-2.63-33.58c-3.59-9.55-10.32-17.55-21.44-22.94
			C180.21,85.81,131.53,84.83,129.57,84.79L129.57,84.79z"/>
		<path class="st10" d="M45.7,230.95c0,0,17.84,1.16,20.16-8.33c2.33-9.5,5.82-28.11-0.97-43.04
			c-6.79-14.93-20.16-36.25-20.16-36.25s26.17-15.9,33.73-25.01c7.56-9.11,29.47-2.71,29.47-2.71l21.64-2.13l20.09,1.36
			c0,0,23.46-5.62,31.02,3.49c7.56,9.11,33.73,25.01,33.73,25.01s-13.38,21.33-20.16,36.25c-6.79,14.93-3.29,33.54-0.97,43.04
			c2.33,9.5,20.16,8.33,20.16,8.33s-1.36-10.47-0.58-18.61c0.78-8.14,9.69-47.88,10.47-62.62c0.77-14.73-2.71-35.67-19.19-47.11
			c-16.44-11.41-74.29-14.1-74.56-14.11v0h0h0v0c-0.26,0.01-58.12,2.7-74.56,14.11c-16.48,11.44-19.97,32.38-19.19,47.11
			c0.78,14.73,9.69,54.48,10.47,62.62C47.05,220.49,45.7,230.95,45.7,230.95L45.7,230.95z"/>
		<path class="st11" d="M70.75,222.9c2.23,1.72,4.58,3.7,7.3,6.05c2.48-1.46,7.74-4.69,12.86-5.88l5.73,13.89
			c4.31-0.84,16.35-3.39,32.92-3.39h0.01h0.01c16.57,0,28.61,2.54,32.92,3.39l5.73-13.89c5.12,1.19,10.38,4.43,12.86,5.88
			c2.72-2.35,5.07-4.33,7.29-6.05c4.8,14.18,22.28,17.25,32.57,6.98c40.6-40.6,37.4-134.29,5.4-178.05
			c-16.85-23.04-42.81-38.47-79.38-42.16c-5.64-0.57-11.44-0.86-17.41-0.86c-5.96,0-11.77,0.29-17.41,0.86
			c-36.57,3.69-62.53,19.12-79.38,42.16C-0.76,97.69-1.47,188.72,39,230.73C49.17,241.28,66.44,235.64,70.75,222.9L70.75,222.9z
			 M129.57,117.34c-11.92,0-23.32,0.23-34.28,2.6c-10.81,2.34-21.38,6.79-31.93,15.22l0.04,0c-3.97,3.25-8.14,6.14-13.19,8.24
			c7.72,6.57,13.25,17.09,16.88,28.52c4.57,14.4,6.19,30.45,5.37,41.47c2.15,1.51,4.3,3.17,6.62,5.04c2.14-1.08,5.29-2.51,8.5-3.45
			l-0.46-1.12l-10.54-10.88l14.47,2.79c4.94,0.95,8.93,16.5,10.93,21.35c1.75-0.28,4.1-0.63,6.89-0.96l-2-12.11l8.57-1.39
			l2.09,12.66c2.43-0.18,5.01-0.32,7.69-0.39v-13.49h4.36h4.36v13.49c2.68,0.08,5.26,0.22,7.69,0.39l2.09-12.66l8.57,1.39l-2,12.11
			c2.79,0.34,5.14,0.68,6.89,0.96c2-4.85,5.98-20.39,10.93-21.35l14.47-2.79l-10.54,10.88l-0.46,1.12c3.21,0.94,6.36,2.37,8.5,3.45
			c2.32-1.87,4.47-3.53,6.62-5.04c-0.82-11.02,0.8-27.07,5.37-41.47c3.63-11.43,9.15-21.95,16.87-28.52
			c-5.05-2.11-9.22-4.99-13.2-8.24l0.04,0c-10.55-8.44-21.11-12.88-31.93-15.22C152.88,117.57,141.48,117.34,129.57,117.34
			L129.57,117.34z M58.04,128.51c11.75-9.4,23.47-14.34,35.44-16.93c11.82-2.56,23.7-2.8,36.09-2.8c12.39,0,24.28,0.24,36.09,2.8
			c11.97,2.59,23.69,7.53,35.44,16.93l0-0.01c5.13,4.17,10.63,7.59,18.2,9.09l0.21-0.06c0.23-0.07,0.46-0.14,0.7-0.2
			c-0.29-5.73-1.21-10.72-2.84-15.05c-3.26-8.66-9.58-14.87-19.74-19.4c-8.75-3.91-21.48-6.31-33.56-7.78l0,0l-0.01,0
			c-17.45-2.13-33.56-2.33-34.46-2.33h-0.01c-0.9,0.01-17.01,0.21-34.46,2.33l-0.01,0l0,0c-12.09,1.47-24.81,3.88-33.56,7.78
			c-10.16,4.54-16.48,10.75-19.74,19.4c-1.63,4.33-2.55,9.33-2.84,15.05c0.24,0.06,0.47,0.13,0.7,0.2l0.21,0.06
			C47.41,136.09,52.91,132.67,58.04,128.51L58.04,128.51L58.04,128.51z M129.57,51.35c2.89,0,5.24,2.34,5.24,5.23
			c0,2.89-2.34,5.23-5.24,5.23c-2.89,0-5.24-2.34-5.24-5.23C124.33,53.7,126.68,51.35,129.57,51.35L129.57,51.35z M205.81,72.87
			c-2.89,0-5.23,2.34-5.23,5.23s2.34,5.23,5.23,5.23c2.89,0,5.23-2.34,5.23-5.23S208.7,72.87,205.81,72.87L205.81,72.87z
			 M53.33,72.87c2.89,0,5.24,2.34,5.24,5.23s-2.34,5.23-5.24,5.23c-2.89,0-5.23-2.34-5.23-5.23S50.44,72.87,53.33,72.87L53.33,72.87
			z M220.05,146.41l0.12,0.02c-0.18,3.87-0.58,8.03-1.16,12.48c-1.44,10.97-3.92,20.8-6.21,29.89c-3.49,13.83-6.57,26.05-5.3,38.95
			c-3.98-0.47-9.42-2.21-11.17-8.05c-0.4-1.34-0.71-3.01-0.93-4.94c-1.14-10,0.27-25.92,4.82-40.25
			C204.29,161.67,210.8,150.3,220.05,146.41L220.05,146.41z M39.08,146.41l-0.12,0.02c0.18,3.87,0.58,8.03,1.16,12.48
			c1.44,10.97,3.92,20.8,6.21,29.89c3.49,13.83,6.57,26.05,5.31,38.95c3.98-0.47,9.43-2.21,11.17-8.05c0.4-1.34,0.71-3.01,0.93-4.94
			c1.14-10-0.28-25.92-4.82-40.25C54.84,161.67,48.33,150.3,39.08,146.41L39.08,146.41z M129.57,17.36c5.86,0,11.38,0.27,16.57,0.79
			c33.91,3.42,57.88,17.58,73.33,38.72c30.29,41.42,32.1,126.41-3.66,166.02c-0.2-10.25,2.4-20.54,5.3-32.03
			c2.34-9.25,4.86-19.26,6.38-30.86c2.22-16.98,1.82-30.23-2.13-40.73c-4.12-10.92-11.88-18.66-24.25-24.19
			c-23.34-10.42-71.35-10.85-71.49-10.85h-0.07c-0.14,0-48.15,0.43-71.49,10.85c-12.38,5.53-20.14,13.27-24.26,24.19
			c-7.76,20.6-1.05,50.58,4.25,71.59c2.9,11.48,5.49,21.77,5.3,32.03C7.75,183.49,9.04,98.76,39.67,56.87
			c15.45-21.13,39.42-35.3,73.33-38.72C118.19,17.63,123.71,17.36,129.57,17.36L129.57,17.36z M129.57,190.51l0.01-0.01l4.21,5.67
			c0,0,3.14,0.61,5.84-1.22c2.7-1.83,6.45-6.1,3.31-11.94c-3.14-5.84-9.5-14.38-9.5-14.38h-3.87h-3.87c0,0-6.36,8.54-9.5,14.38
			c-3.14,5.84,0.61,10.11,3.31,11.94c2.7,1.83,5.84,1.22,5.84,1.22l4.21-5.67L129.57,190.51L129.57,190.51z M154.27,147.7
			c0,0,16.3-2.09,21.36-0.35c5.06,1.75,12.9,12.12,12.47,18.48c-0.44,6.36-8.54,24.15-8.54,24.15s-5.32,4.71-13.6,2.7
			c-8.28-2-17.17-15.34-17.17-15.34s-0.26-3.31-0.35-11.07c-0.09-7.76,2.62-17.17,2.62-17.17S152.26,148.04,154.27,147.7
			L154.27,147.7z M104.87,147.7c0,0-16.3-2.09-21.36-0.35c-5.06,1.75-12.9,12.12-12.47,18.48c0.44,6.36,8.54,24.15,8.54,24.15
			s5.32,4.71,13.6,2.7c8.28-2,17.17-15.34,17.17-15.34s0.26-3.31,0.35-11.07c0.09-7.76-2.62-17.17-2.62-17.17
			S106.87,148.04,104.87,147.7L104.87,147.7z"/>
	</g>
</g>
</svg>
