<?xml version="1.0" encoding="utf-8"?>
<!-- Generator: Adobe Illustrator 27.2.0, SVG Export Plug-In . SVG Version: 6.00 Build 0)  -->
<svg version="1.1" id="Capa_1" xmlns="http://www.w3.org/2000/svg" xmlns:xlink="http://www.w3.org/1999/xlink" x="0px" y="0px"
	 viewBox="0 0 40 40" style="enable-background:new 0 0 40 40;" xml:space="preserve">
<style type="text/css">
	.st0{fill:#26828F;}
	.st1{fill:#FFFFFF;}
	.st2{fill:#26828F;stroke:#26828F;}
</style>
<circle class="st0" cx="20" cy="20" r="20"/>
<path class="st1" d="M9,10c-0.55,0-1,0.45-1,1s0.45,1,1,1V10z M11.22,11l0.98-0.2c-0.09-0.47-0.5-0.8-0.98-0.8V11z M10.69,13.41
	c0.11,0.54,0.64,0.89,1.18,0.78c0.54-0.11,0.89-0.64,0.78-1.18L10.69,13.41z M13.44,21.05c-0.55,0-1,0.45-1,1s0.45,1,1,1V21.05z
	 M24.56,22.05v1c0.38,0,0.72-0.21,0.89-0.55L24.56,22.05z M29,13.21l0.89,0.45c0.16-0.31,0.14-0.68-0.04-0.97
	c-0.18-0.3-0.5-0.48-0.85-0.48V13.21z M11.67,12.21c-0.55,0-1,0.45-1,1c0,0.55,0.45,1,1,1V12.21z M12.46,22.25
	c0.11,0.54,0.64,0.89,1.18,0.78c0.54-0.11,0.89-0.64,0.78-1.18L12.46,22.25z M12.65,13.01c-0.11-0.54-0.64-0.89-1.18-0.78
	c-0.54,0.11-0.89,0.64-0.78,1.18L12.65,13.01z M14.15,22.76c0.39-0.39,0.39-1.02,0-1.41c-0.39-0.39-1.02-0.39-1.41,0L14.15,22.76z
	 M10.9,24.59l-0.71-0.71L10.9,24.59z M24.56,27.47c0.55,0,1-0.45,1-1c0-0.55-0.45-1-1-1V27.47z M24.56,26.47h-1
	c0,0.27,0.11,0.52,0.29,0.71L24.56,26.47z M26.78,28.68l-0.71,0.71c0.19,0.19,0.44,0.29,0.71,0.29V28.68z M15.67,28.68l-0.86-0.5
	c-0.09,0.15-0.14,0.33-0.14,0.5H15.67z M15.67,30.89h-1c0,0.18,0.05,0.35,0.14,0.5L15.67,30.89z M9,12h2.22v-2H9V12z M10.24,11.2
	l0.44,2.21l1.96-0.39L12.2,10.8L10.24,11.2z M13.44,23.05h11.11v-2H13.44V23.05z M25.45,22.5l4.44-8.84l-1.79-0.9l-4.44,8.84
	L25.45,22.5z M29,12.21H11.67v2H29V12.21z M14.42,21.86l-1.78-8.84l-1.96,0.39l1.78,8.84L14.42,21.86z M12.74,21.34l-2.55,2.53
	l1.41,1.42l2.55-2.53L12.74,21.34z M10.19,23.88c-1.34,1.33-0.38,3.6,1.49,3.6v-2c-0.04,0-0.06-0.01-0.06-0.02
	c-0.01-0.01-0.03-0.03-0.04-0.05c-0.01-0.03-0.01-0.05-0.01-0.06c0-0.01,0-0.02,0.03-0.05L10.19,23.88z M11.68,27.47h12.87v-2H11.68
	V27.47z M25.56,26.47c0-0.66,0.54-1.21,1.22-1.21v-2c-1.77,0-3.22,1.43-3.22,3.21H25.56z M26.78,25.26c0.68,0,1.22,0.55,1.22,1.21h2
	c0-1.78-1.45-3.21-3.22-3.21V25.26z M28,26.47c0,0.66-0.54,1.21-1.22,1.21v2c1.77,0,3.22-1.43,3.22-3.21H28z M27.48,27.98
	l-2.22-2.21l-1.41,1.42l2.22,2.21L27.48,27.98z M16.53,29.19c0.28-0.47,0.84-0.71,1.38-0.57l0.52-1.93
	c-1.41-0.37-2.89,0.24-3.62,1.49L16.53,29.19z M17.91,28.62c0.54,0.14,0.9,0.62,0.9,1.17h2c0-1.46-0.98-2.73-2.39-3.1L17.91,28.62z
	 M18.81,29.79c0,0.54-0.37,1.03-0.9,1.17l0.52,1.93c1.41-0.37,2.39-1.64,2.39-3.1H18.81z M17.91,30.96
	c-0.54,0.14-1.1-0.09-1.38-0.57l-1.73,1c0.73,1.26,2.22,1.87,3.62,1.49L17.91,30.96z M16.67,30.89v-2.21h-2v2.21H16.67z"/>
<circle class="st1" cx="29" cy="13" r="6"/>
<path class="st2" d="M31.53,12.53h-2.05v-2.05c0-0.26-0.21-0.47-0.47-0.47c-0.26,0-0.47,0.21-0.47,0.47v2.05h-2.05
	C26.21,12.53,26,12.73,26,13c0,0.13,0.05,0.25,0.14,0.33c0.09,0.09,0.2,0.14,0.33,0.14h2.05v2.05c0,0.13,0.05,0.25,0.14,0.33
	C28.75,15.95,28.87,16,29,16c0.26,0,0.47-0.21,0.47-0.47v-2.05h2.05c0.26,0,0.47-0.21,0.47-0.47C32,12.74,31.79,12.53,31.53,12.53z"
	/>
</svg>
